<svg xmlns="http://www.w3.org/2000/svg" width="44.929" height="50.276" viewBox="0 0 44.929 50.276">
  <path d="M79.971,24.089V20.5a2.226,2.226,0,0,0-4.453,0v3.119H70.1V20.5a2.226,2.226,0,0,0-4.453,0v3.119H60.227V20.5a2.227,2.227,0,0,0-4.454,0v3.119h-5.42V20.5a2.227,2.227,0,0,0-4.454,0v3.179a7.124,7.124,0,0,0-6.249,7.06V61.434a7.127,7.127,0,0,0,7.119,7.119H77.461a7.128,7.128,0,0,0,7.119-7.119V30.742A7.126,7.126,0,0,0,79.971,24.089ZM65.645,27.369V30.3a2.226,2.226,0,1,0,4.453,0V27.395a3.807,3.807,0,1,1-4.453-.026Zm-9.872.009V30.3a2.227,2.227,0,0,0,4.454,0V27.385a3.808,3.808,0,1,1-4.454-.008Zm-9.873.011V30.3a2.227,2.227,0,0,0,4.454,0V27.375a3.808,3.808,0,1,1-4.454.013ZM80.572,61.434a3.115,3.115,0,0,1-3.11,3.112H46.77a3.115,3.115,0,0,1-3.112-3.112V40.279H80.572ZM77.714,34.274a3.806,3.806,0,0,1-2.2-6.916V30.3a2.226,2.226,0,1,0,4.453,0V27.406a3.8,3.8,0,0,1-2.258,6.868Z" transform="translate(-39.651 -18.278)" />
</svg>
