<svg xmlns="http://www.w3.org/2000/svg" width="50.276" height="50.276" viewBox="0 0 50.276 50.276"><g transform="translate(0)"><path d="M34.138,9A25.138,25.138,0,1,0,59.276,34.138,25.138,25.138,0,0,0,34.138,9Zm0,45.925A20.787,20.787,0,1,1,54.925,34.138,20.787,20.787,0,0,1,34.138,54.925ZM52.17,33.634,38.285,30.094,35.1,16.124c-.382-1.669-1.039-1.677-1.462-.018l-3.54,13.884L16.125,33.18c-1.669.38-1.678,1.039-.018,1.462l13.884,3.54,3.189,13.97c.382,1.669,1.039,1.677,1.462.018l3.54-13.885L52.151,35.1C53.82,34.715,53.828,34.057,52.17,33.634ZM26.541,29.205l2.28-.521.578-2.266-5.056-3.177c-1.178-.74-1.56-.367-.85.829Zm15.316.193,3.176-5.056c.739-1.177.366-1.56-.829-.85L39.07,26.541l.52,2.279Zm-.123,9.671-2.28.521-.578,2.266,5.056,3.177c1.178.74,1.56.368.85-.829Zm-15.315-.192-3.176,5.055c-.74,1.177-.367,1.56.829.85l5.133-3.047-.521-2.281Z" transform="translate(-9 -9)" /></g></svg>