<svg xmlns="http://www.w3.org/2000/svg" width="49.7" height="50.276" viewBox="0 0 49.7 50.276"><path d="M109.3,103.493a66.2,66.2,0,0,0,7.235,3.622c.492.153.988.293,1.493.416a49.071,49.071,0,0,0,4.993.685.227.227,0,0,0,.178-.387l-.447-.447a.227.227,0,0,1-.066-.16v-1.4a.227.227,0,0,0-.066-.16l-.683-.684a.227.227,0,0,1-.066-.16V96.454a.226.226,0,0,0-.066-.16l-4.583-4.584a.227.227,0,0,1-.066-.16V89.965a.227.227,0,0,1,.049-.141l1.013-1.275a.227.227,0,0,0,.049-.141V87.282a.227.227,0,0,0-.227-.227h-.972a.227.227,0,0,1-.16-.066l-1.695-1.694a.227.227,0,0,0-.16-.066h-2.469a.227.227,0,0,1-.16-.066l-2.6-2.6a.227.227,0,0,1-.066-.16V80.77a.227.227,0,0,0-.066-.16l-4-4a.227.227,0,0,1-.066-.16V74.295a.227.227,0,0,1,.066-.16l2.83-2.83a.227.227,0,0,0,.066-.16V68.382a.227.227,0,0,0-.066-.16l-1.2-1.2a.227.227,0,0,0-.16-.066h-2.125a.227.227,0,0,0-.16.066l-.96.961a.232.232,0,0,0-.022.026,25.12,25.12,0,0,0,5.408,35.488Z" transform="translate(-98.848 -57.941)" /><path d="M191.025,48.874h-1.61a.227.227,0,0,0-.161.066L187.393,50.8a.227.227,0,0,1-.16.066h-.9a.227.227,0,0,1-.16-.066L183.162,47.8a.227.227,0,0,1-.066-.16V43.594a.227.227,0,0,1,.066-.161l3.722-3.722a.227.227,0,0,1,.161-.066h2.131a.227.227,0,0,0,.227-.227v-.469a.227.227,0,0,1,.066-.161l.828-.827a.227.227,0,0,1,.16-.066h2.952a.228.228,0,0,0,.222-.277q-.115-.51-.251-1.012a.228.228,0,0,0-.22-.168h-.333a.227.227,0,0,1-.16-.066l-1.36-1.36a.227.227,0,0,0-.321,0l-1.058,1.057a.227.227,0,0,1-.16.066H188.75a.226.226,0,0,1-.16-.066l-.657-.656a.227.227,0,0,1-.066-.161V34.083a.227.227,0,0,1,.227-.227h1.481a.227.227,0,0,0,.227-.227V32.556a.227.227,0,0,1,.066-.16l1.033-1.033a.227.227,0,0,0,.066-.16v-.394a.231.231,0,0,0-.031-.115,25.339,25.339,0,0,0-4.827-6.048.229.229,0,0,0-.316.007l-.79.79a.227.227,0,0,1-.16.066h-2.461a.227.227,0,0,0-.161.066l-2.814,2.814a.227.227,0,0,1-.16.066h-.955a.227.227,0,0,1-.16-.066l-.771-.771a.226.226,0,0,1-.066-.16V26.351a.226.226,0,0,1,.066-.16l.652-.652a.227.227,0,0,0,.066-.161V23.924a.227.227,0,0,0-.227-.227h-2.037a.227.227,0,0,1-.227-.227v-.429a.227.227,0,0,1,.066-.16l2.136-2.136a.227.227,0,0,1,.16-.066h1.427a.227.227,0,0,0,.1-.434A25.112,25.112,0,0,0,154.2,22.893a.227.227,0,0,0,.134.411h7.914a.227.227,0,0,1,.14.048l2.022,1.576a.227.227,0,0,0,.139.048h1.1a.227.227,0,0,0,.16-.066l1.2-1.2a.226.226,0,0,1,.16-.066h3.954a.227.227,0,0,1,.161.066l4.439,4.44a.227.227,0,0,1,.066.16v1.067a.227.227,0,0,1-.066.16l-2.413,2.414a.227.227,0,0,1-.161.066h-4.521a.227.227,0,0,0-.227.227v.576a.227.227,0,0,1-.066.16l-4.709,4.709a.227.227,0,0,0-.066.16v2.046a.227.227,0,0,1-.227.227h-.479a.227.227,0,0,1-.227-.227V38.678a.227.227,0,0,0-.227-.227H159.34a.227.227,0,0,0-.16.066L156.5,41.2a.227.227,0,0,0,0,.322l2.183,2.159a.227.227,0,0,0,.159.066h2.666a.227.227,0,0,1,.227.227V44.9a.227.227,0,0,0,.226.227l4.616.017a.227.227,0,0,1,.16.066l.706.706a.227.227,0,0,0,.16.066h1.229a.227.227,0,0,1,.16.066l1.32,1.319a.227.227,0,0,0,.16.066h1.533a.227.227,0,0,1,.16.066L174.8,50.13a.227.227,0,0,0,.16.066h1.892a.227.227,0,0,1,.16.066l1.445,1.445a.226.226,0,0,1,.066.16v.96a.227.227,0,0,1-.066.16l-1.266,1.265a.227.227,0,0,0-.066.16v1.621a.227.227,0,0,1-.092.182l-4.3,3.178a.227.227,0,0,0-.092.182V62.69a.227.227,0,0,1-.066.16l-2.2,2.2a.227.227,0,0,0-.066.16v2.828a.226.226,0,0,0,.243.226,43.643,43.643,0,0,0,4.569-.689,17.91,17.91,0,0,0,2.571-.785,41.067,41.067,0,0,0,6.044-3.171l.334-.273a25.31,25.31,0,0,0,8-9.954.229.229,0,0,0-.048-.255l-.7-.7a.226.226,0,0,1-.067-.16V49.1A.227.227,0,0,0,191.025,48.874Z" transform="translate(-143.937 -18)" /></svg>