<svg xmlns="http://www.w3.org/2000/svg" width="51.423" height="48.107" viewBox="0 0 51.423 48.107">
  <path d="M59.669,45.956,35.952,24.665a2.274,2.274,0,0,0-3.06.018L9.736,45.973a2.275,2.275,0,1,0,3.079,3.35S33.872,29.963,34.08,29.773a.561.561,0,0,1,.771.009c.266.217,21.778,19.559,21.778,19.559a2.275,2.275,0,0,0,3.04-3.385Zm-40.3-11.093L24.442,30.3a2.617,2.617,0,0,0,.813-1.822V24.024a1.1,1.1,0,0,0-1.092-1.092H19.644a1.1,1.1,0,0,0-1.092,1.092V34.5C18.552,35.1,18.917,35.263,19.364,34.862ZM35.47,32.741a1.5,1.5,0,0,0-1.952.012L16.991,47.813a3.41,3.41,0,0,0-.971,2.2V69.725a1.317,1.317,0,0,0,1.314,1.313H52.089A1.317,1.317,0,0,0,53.4,69.725V50.011a3.348,3.348,0,0,0-.981-2.187Z" transform="translate(-9 -22.932)" />
</svg>
