<?xml version="1.0" encoding="UTF-8" standalone="no"?><!DOCTYPE svg PUBLIC "-//W3C//DTD SVG 1.1//EN" "http://www.w3.org/Graphics/SVG/1.1/DTD/svg11.dtd"><svg width="100%" height="100%" viewBox="0 0 740 551" version="1.1" xmlns="http://www.w3.org/2000/svg" xmlns:xlink="http://www.w3.org/1999/xlink" xml:space="preserve" xmlns:serif="http://www.serif.com/" style="fill-rule:evenodd;clip-rule:evenodd;stroke-miterlimit:10;"><path id="Union_2" d="M125.334,534.845l-6.934,-3.814l-372.435,-205.121l-7.736,-4.259c-37.539,-20.65 -60.729,-60.279 -60.729,-104.312l0,-206.221c0,-22.45 19.04,-40.632 42.553,-40.632c7.018,-0.106 13.949,1.567 20.147,4.86l243.264,133.942l0,-128.141l653.658,0l70.469,-38.814c6.207,-3.279 13.142,-4.941 20.161,-4.832c23.485,0 42.558,18.172 42.558,40.585l0,201.015c0,44.019 -23.206,83.651 -60.743,104.321l-7.722,4.244l-442.56,243.744l-3.923,2.151c-20.313,11.024 -43.089,16.73 -66.2,16.585c-23.092,0 -44.824,-4.822 -63.828,-15.301Z" style="fill:url(#_Radial1);fill-rule:nonzero;stroke:#000;stroke-opacity:0;stroke-width:1px;"/><defs><radialGradient id="_Radial1" cx="0" cy="0" r="1" gradientUnits="userSpaceOnUse" gradientTransform="matrix(-16.4796,-461.94,1058.23,-12.3597,191.164,519.957)"><stop offset="0" style="stop-color:#fcaf17;stop-opacity:1"/><stop offset="1" style="stop-color:#f47b20;stop-opacity:1"/><stop offset="1" style="stop-color:#f47920;stop-opacity:1"/></radialGradient></defs></svg>